<svg width="1426" height="1664" viewBox="0 0 1426 1664" fill="none" xmlns="http://www.w3.org/2000/svg">
<rect x="16.09" y="173.956" width="158.224" height="1389.82" transform="rotate(-90 16.09 173.956)" stroke="#CDFB47" stroke-width="30.5609"/>
<path d="M1261.16 366.371H1410.43V1639.33L1394.27 1639.34C1374.26 1639.35 1345.68 1639.36 1311.38 1639.38C1242.78 1639.4 1151.3 1639.44 1059.79 1639.46C968.279 1639.49 876.734 1639.5 807.998 1639.48C789.829 1639.48 773.255 1639.47 758.697 1639.46C767.537 1634.3 777.155 1628.35 787.425 1621.52C840.546 1586.2 911.005 1527.44 981.311 1433.24C1120.75 1246.42 1258.68 921.477 1261.16 366.371Z" stroke="#CDFB47" stroke-width="30.5609"/>
<mask id="path-3-inside-1_1645_81" fill="white">
<path fill-rule="evenodd" clip-rule="evenodd" d="M0.80957 351.121H985.187C985.187 1227.62 621.102 1569.23 0.80957 1663.62V351.121ZM333.417 710.707H657.048C657.048 935.451 562.656 1115.25 333.417 1299.54V710.707Z"/>
</mask>
<path d="M985.187 351.121H1015.75V320.56H985.187V351.121ZM0.80957 351.121V320.56H-29.7513V351.121H0.80957ZM0.80957 1663.62H-29.7513V1699.19L5.40721 1693.84L0.80957 1663.62ZM657.048 710.707H687.609V680.146H657.048V710.707ZM333.417 710.707V680.146H302.857V710.707H333.417ZM333.417 1299.54H302.857V1363.32L352.566 1323.35L333.417 1299.54ZM985.187 320.56H0.80957V381.682H985.187V320.56ZM5.40721 1693.84C319.935 1645.97 574.272 1534.67 749.295 1319.97C924.008 1105.66 1015.75 793.117 1015.75 351.121H954.626C954.626 785.625 864.323 1082.14 701.921 1281.35C539.828 1480.19 301.977 1586.88 -3.78807 1633.41L5.40721 1693.84ZM-29.7513 351.121V1663.62H31.3705V351.121H-29.7513ZM657.048 680.146H333.417V741.268H657.048V680.146ZM352.566 1323.35C587.118 1134.79 687.609 946.901 687.609 710.707H626.487C626.487 924 538.194 1095.7 314.269 1275.72L352.566 1323.35ZM302.857 710.707V1299.54H363.978V710.707H302.857Z" fill="#CDFB47" mask="url(#path-3-inside-1_1645_81)"/>
</svg>
