<svg width="1569" height="361" viewBox="0 0 1569 361" fill="none" xmlns="http://www.w3.org/2000/svg">
<rect x="0.256836" y="53.1289" width="39.3735" height="296.239" transform="rotate(-90 0.256836 53.1289)" fill="#00023A"/>
<path d="M297.432 86.8789H259.933C259.933 321.245 143.438 358.744 144.625 358.744H297.432V86.8789Z" fill="#00023A"/>
<path fill-rule="evenodd" clip-rule="evenodd" d="M0.256836 86.877H205.562C205.562 269.683 129.627 340.93 0.256836 360.617V86.877ZM69.6313 161.875H137.129C137.129 208.749 117.442 246.247 69.6313 284.683V161.875Z" fill="#00023A"/>
<path d="M1426.75 356.087C1400.15 356.087 1376.15 350.41 1354.74 339.058C1333.66 327.706 1316.96 311.489 1304.63 290.406C1292.63 269.323 1286.63 244.673 1286.63 216.454C1286.63 188.56 1292.79 164.072 1305.12 142.989C1317.44 121.582 1334.31 105.203 1355.72 93.8506C1377.12 82.4984 1401.13 76.8223 1427.72 76.8223C1454.32 76.8223 1478.32 82.4984 1499.73 93.8506C1521.13 105.203 1538 121.582 1550.33 142.989C1562.65 164.072 1568.81 188.56 1568.81 216.454C1568.81 244.348 1562.49 268.999 1549.84 290.406C1537.51 311.489 1520.49 327.706 1498.75 339.058C1477.35 350.41 1453.35 356.087 1426.75 356.087ZM1426.75 284.081C1442.64 284.081 1456.1 278.243 1467.13 266.566C1478.48 254.89 1484.16 238.186 1484.16 216.454C1484.16 194.723 1478.64 178.019 1467.62 166.343C1456.91 154.666 1443.61 148.828 1427.72 148.828C1411.5 148.828 1398.04 154.666 1387.34 166.343C1376.64 177.695 1371.28 194.399 1371.28 216.454C1371.28 238.186 1376.47 254.89 1386.85 266.566C1397.56 278.243 1410.86 284.081 1426.75 284.081Z" fill="#00023A"/>
<path d="M1258.41 0.591797V360.619H1175.21V0.591797H1258.41Z" fill="#00023A"/>
<path d="M1146.99 0.591797V360.619H1063.79V0.591797H1146.99Z" fill="#00023A"/>
<path d="M887.959 278.867L946.828 85.2305H1035.38L939.044 356.71H836.387L740.056 85.2305H829.089L887.959 278.867Z" fill="#00023A"/>
<path d="M559.406 13.7559C595.526 13.7559 627.091 20.9149 654.101 35.2331C681.11 49.5513 701.936 69.7269 716.58 95.7599C731.549 121.467 739.033 151.243 739.033 185.086C739.033 218.603 731.549 248.379 716.58 274.412C701.936 300.445 680.947 320.62 653.613 334.938C626.603 349.256 595.201 356.416 559.406 356.416H431.03V13.7559H559.406ZM554.036 284.174C585.601 284.174 610.17 275.55 627.742 258.304C645.315 241.057 654.101 216.651 654.101 185.086C654.101 153.521 645.315 128.952 627.742 111.38C610.17 93.8074 585.601 85.0212 554.036 85.0212H514.499V284.174H554.036Z" fill="#00023A"/>
</svg>
