<svg width="556" height="180" viewBox="0 0 556 180" fill="none" xmlns="http://www.w3.org/2000/svg">
<path fill-rule="evenodd" clip-rule="evenodd" d="M65.4824 13.1621C82.8496 13.1621 98.0273 16.6836 111.016 23.7246C124.158 30.6094 134.25 40.3086 141.291 52.8262C144.798 59.0598 147.432 65.7399 149.192 72.8662L68.8772 88.2987L52.1118 91.5201L68.9226 178.581C67.7854 178.613 66.6387 178.629 65.4824 178.629H0V13.1621H65.4824ZM102.81 171.838C105.55 170.719 108.207 169.462 110.781 168.066C123.924 160.869 134.016 151.012 141.057 138.494C146.426 129.156 149.793 118.86 151.157 107.605L92.6567 118.995L102.81 171.838Z" fill="#00EA63"/>
<path d="M486.106 179.272C472.963 179.272 461.149 176.534 450.666 171.058C440.339 165.581 432.202 157.758 426.257 147.587C420.311 137.417 417.338 125.447 417.338 111.677C417.338 98.0646 420.311 86.173 426.257 76.0024C432.359 65.8319 440.574 58.0084 450.901 52.532C461.384 47.0556 473.197 44.3174 486.341 44.3174C499.484 44.3174 511.22 47.0556 521.547 52.532C532.03 58.0084 540.245 65.8319 546.19 76.0024C552.293 86.173 555.344 98.0646 555.344 111.677C555.344 125.29 552.293 137.26 546.19 147.587C540.245 157.758 532.03 165.581 521.547 171.058C511.063 176.534 499.25 179.272 486.106 179.272ZM486.106 139.373C492.521 139.373 497.841 137.026 502.066 132.331C506.447 127.481 508.638 120.596 508.638 111.677C508.638 102.759 506.447 95.9523 502.066 91.2582C497.841 86.5641 492.6 84.2171 486.341 84.2171C480.082 84.2171 474.84 86.5641 470.616 91.2582C466.391 95.9523 464.279 102.759 464.279 111.677C464.279 120.753 466.313 127.637 470.381 132.331C474.449 137.026 479.691 139.373 486.106 139.373Z" fill="#00EA63"/>
<path d="M412.652 5.94727V179.628H366.65V5.94727H412.652Z" fill="#00EA63"/>
<path d="M361.395 10.3482L322.326 179.578L277.503 169.23L316.572 0L361.395 10.3482Z" fill="#00EA63"/>
<path d="M225.167 136.21L249.81 47.9609H298.864L253.566 179.63H196.298L151 47.9609H200.053L225.167 136.21Z" fill="#00EA63"/>
</svg>
